<?xml version="1.0" encoding="UTF-8" standalone="no"?>
<!DOCTYPE svg PUBLIC "-//W3C//DTD SVG 1.1//EN" "http://www.w3.org/Graphics/SVG/1.1/DTD/svg11.dtd">
<svg width="100%" height="100%" viewBox="0 0 532 631" version="1.1" xmlns="http://www.w3.org/2000/svg" xmlns:xlink="http://www.w3.org/1999/xlink" xml:space="preserve" xmlns:serif="http://www.serif.com/" style="fill-rule:evenodd;clip-rule:evenodd;stroke-linecap:round;stroke-miterlimit:10;">
    <g transform="matrix(0.997502,-0.0706385,0.0810183,1.14408,-222.613,-74.2763)">
        <rect x="214.361" y="108.47" width="490.94" height="520.728" style="fill:url(#_Radial1);"/>
    </g>
    <g transform="matrix(0.940832,-0.0666254,0.0845473,1.19391,-198.404,-113.678)">
        <g transform="matrix(1.05759,0.0590178,-0.0748933,0.833404,201.316,106.449)">
            <path d="M468.633,-26.752C470.835,-26.908 472.496,-28.823 472.341,-31.025C472.185,-33.227 470.27,-34.888 468.068,-34.732C465.866,-34.576 464.205,-32.662 464.36,-30.46C464.516,-28.258 466.431,-26.596 468.633,-26.752Z" style="fill:none;stroke:white;stroke-opacity:0.29;stroke-width:4px;"/>
            <path d="M470.769,-24.899C470.613,-27.101 472.275,-29.015 474.477,-29.171C476.679,-29.327 478.593,-27.666 478.749,-25.464C478.905,-23.262 477.244,-21.347 475.042,-21.191C472.84,-21.035 470.925,-22.696 470.769,-24.899ZM472.764,-25.04C472.686,-26.141 473.517,-27.098 474.618,-27.176C475.719,-27.254 476.676,-26.424 476.754,-25.322C476.832,-24.221 476.002,-23.264 474.901,-23.186C473.8,-23.108 472.842,-23.939 472.764,-25.04Z" style="fill:none;stroke:white;stroke-opacity:0.29;stroke-width:4px;"/>
            <path d="M464.36,-30.46C397.099,-25.697 12.444,1.543 12.444,1.543L56.47,623.245L518.362,590.536C518.362,590.536 480.694,58.629 475.042,-21.191" style="fill:none;stroke:white;stroke-opacity:0.29;stroke-width:4px;stroke-linejoin:round;stroke-miterlimit:1.5;stroke-dasharray:4,12,4,8;"/>
        </g>
    </g>
    <g transform="matrix(0.902771,-0.0639301,0.0845473,1.19391,-180.414,-114.952)">
        <g transform="matrix(1.10217,0.0590178,-0.0780509,0.833404,189.875,106.449)">
            <path d="M461.68,-27.597C463.148,-27.701 464.256,-28.977 464.152,-30.445C464.048,-31.913 462.771,-33.021 461.303,-32.917C459.835,-32.813 458.728,-31.536 458.832,-30.068C458.936,-28.6 460.212,-27.493 461.68,-27.597Z" style="fill:none;stroke:white;stroke-opacity:0.25;stroke-width:2.67px;"/>
            <path d="M463.104,-26.361C463,-27.829 464.108,-29.105 465.576,-29.209C467.044,-29.313 468.32,-28.206 468.424,-26.738C468.528,-25.269 467.421,-23.993 465.953,-23.889C464.484,-23.785 463.208,-24.893 463.104,-26.361ZM464.434,-26.455C464.382,-27.189 464.936,-27.827 465.67,-27.879C466.404,-27.931 467.042,-27.377 467.094,-26.643C467.146,-25.909 466.592,-25.271 465.858,-25.219C465.124,-25.167 464.486,-25.721 464.434,-26.455Z" style="fill:none;stroke:white;stroke-opacity:0.25;stroke-width:2.67px;"/>
            <path d="M458.832,-30.068C403.551,-26.154 22.276,0.847 22.276,0.847L66.302,622.549L509.508,591.163C509.508,591.163 470.686,42.952 465.953,-23.889" style="fill:none;stroke:white;stroke-opacity:0.25;stroke-width:2.67px;stroke-linejoin:round;stroke-miterlimit:1.5;stroke-dasharray:2.67,8,2.67,5.33;"/>
        </g>
    </g>
    <g transform="matrix(0.997502,-0.0706385,0.00258137,0.0364521,-173.261,622.639)">
        <rect x="214.361" y="108.47" width="490.94" height="520.728" style="fill:rgb(255,204,51);"/>
    </g>
    <g transform="matrix(1,0,0,1,-127.277,20.3471)">
        <g transform="matrix(300,0,0,300,237.43,471.252)">
            <path d="M0.221,-0.074C0.221,-0.019 0.19,0.009 0.127,0.01C0.065,0.01 0.034,-0.018 0.034,-0.074L0.034,-0.77C0.034,-0.826 0.065,-0.854 0.127,-0.854C0.19,-0.854 0.221,-0.826 0.221,-0.77L0.221,-0.074ZM0.166,-0.77C0.166,-0.794 0.153,-0.806 0.128,-0.806L0.127,-0.806C0.102,-0.806 0.09,-0.794 0.09,-0.77L0.09,-0.074C0.09,-0.05 0.102,-0.039 0.127,-0.039C0.153,-0.039 0.166,-0.05 0.166,-0.074L0.166,-0.77Z" style="fill:white;fill-rule:nonzero;"/>
        </g>
        <g transform="matrix(300,0,0,300,314.041,471.252)">
            <path d="M0.039,-0.847L0.14,-0.847C0.197,-0.847 0.226,-0.819 0.226,-0.763L0.226,-0.483C0.226,-0.458 0.21,-0.438 0.178,-0.424C0.21,-0.41 0.226,-0.389 0.226,-0.364L0.226,-0.084C0.226,-0.028 0.196,-0 0.135,-0L0.039,-0L0.039,-0.847ZM0.095,-0.799L0.095,-0.448L0.124,-0.448C0.135,-0.448 0.142,-0.449 0.147,-0.45C0.163,-0.456 0.17,-0.467 0.17,-0.483L0.17,-0.763C0.17,-0.787 0.158,-0.799 0.133,-0.799L0.095,-0.799ZM0.095,-0.4L0.095,-0.048L0.133,-0.048C0.158,-0.048 0.17,-0.06 0.17,-0.084L0.17,-0.364C0.17,-0.381 0.163,-0.392 0.147,-0.397C0.142,-0.399 0.135,-0.4 0.124,-0.4L0.095,-0.4Z" style="fill:white;fill-rule:nonzero;"/>
        </g>
        <g transform="matrix(300,0,0,300,392.117,471.252)">
            <rect x="0.042" y="-0.847" width="0.056" height="0.846" style="fill:white;fill-rule:nonzero;"/>
        </g>
        <g transform="matrix(300,0,0,300,433.719,471.252)">
            <path d="M0.039,-0L0.039,-0.847L0.095,-0.847L0.095,-0.048L0.206,-0.048L0.206,-0L0.039,-0Z" style="fill:white;fill-rule:nonzero;"/>
        </g>
        <g transform="matrix(300,0,0,300,499.93,471.252)">
            <path d="M0.221,-0.074C0.221,-0.019 0.19,0.009 0.127,0.01C0.065,0.01 0.034,-0.018 0.034,-0.074L0.034,-0.77C0.034,-0.826 0.065,-0.854 0.127,-0.854C0.19,-0.854 0.221,-0.826 0.221,-0.77L0.221,-0.074ZM0.166,-0.77C0.166,-0.794 0.153,-0.806 0.128,-0.806L0.127,-0.806C0.102,-0.806 0.09,-0.794 0.09,-0.77L0.09,-0.074C0.09,-0.05 0.102,-0.039 0.127,-0.039C0.153,-0.039 0.166,-0.05 0.166,-0.074L0.166,-0.77Z" style="fill:white;fill-rule:nonzero;"/>
        </g>
    </g>
    <g transform="matrix(0.690193,0,0,0.690193,-87.3011,209.661)">
        <g transform="matrix(54.1667,0,0,54.1667,237.43,471.252)">
            <path d="M0.74,-0.61L0.709,-0.464L0.221,-0.464L0.2,-0.366L0.688,-0.366L0.605,0.024L-0.029,0.024L0.002,-0.122L0.49,-0.122L0.511,-0.22L0.022,-0.22L0.105,-0.61L0.74,-0.61Z" style="fill:white;fill-opacity:0.77;fill-rule:nonzero;"/>
        </g>
        <g transform="matrix(54.1667,0,0,54.1667,274.458,471.252)">
            <path d="M0.105,-0.61L0.74,-0.61L0.605,0.024L-0.029,0.024L0.105,-0.61ZM0.221,-0.464L0.148,-0.122L0.49,-0.122L0.563,-0.464L0.221,-0.464Z" style="fill:white;fill-opacity:0.77;fill-rule:nonzero;"/>
        </g>
        <g transform="matrix(54.1667,0,0,54.1667,311.486,471.252)">
            <path d="M0.74,-0.61L0.709,-0.464L0.221,-0.464L0.2,-0.366L0.688,-0.366L0.657,-0.22L0.169,-0.22L0.117,0.024L-0.029,0.024L0.105,-0.61L0.74,-0.61Z" style="fill:white;fill-opacity:0.77;fill-rule:nonzero;"/>
        </g>
        <g transform="matrix(54.1667,0,0,54.1667,348.514,471.252)">
            <path d="M0.465,-0.464L0.361,0.024L0.215,0.024L0.318,-0.464L0.074,-0.464L0.105,-0.61L0.74,-0.61L0.709,-0.464L0.465,-0.464Z" style="fill:white;fill-opacity:0.77;fill-rule:nonzero;"/>
        </g>
        <g transform="matrix(54.1667,0,0,54.1667,385.542,471.252)">
            <path d="M0.49,-0.122L0.594,-0.61L0.74,-0.61L0.605,0.024L-0.029,0.024L0.105,-0.61L0.252,-0.61L0.148,-0.122L0.246,-0.122L0.35,-0.61L0.496,-0.61L0.393,-0.122L0.49,-0.122Z" style="fill:white;fill-opacity:0.77;fill-rule:nonzero;"/>
        </g>
        <g transform="matrix(54.1667,0,0,54.1667,422.57,471.252)">
            <path d="M0.605,0.024L0.459,0.024L0.511,-0.22L0.169,-0.22L0.117,0.024L-0.029,0.024L0.105,-0.61L0.74,-0.61L0.605,0.024ZM0.542,-0.366L0.563,-0.464L0.221,-0.464L0.2,-0.366L0.542,-0.366Z" style="fill:white;fill-opacity:0.77;fill-rule:nonzero;"/>
        </g>
        <g transform="matrix(54.1667,0,0,54.1667,459.598,471.252)">
            <path d="M0.606,0.024L0.423,0.024L0.271,-0.22L0.218,-0.22L0.249,-0.366L0.542,-0.366L0.563,-0.464L0.221,-0.464L0.117,0.024L-0.029,0.024L0.105,-0.61L0.74,-0.61L0.657,-0.22L0.466,-0.22L0.606,0.024Z" style="fill:white;fill-opacity:0.77;fill-rule:nonzero;"/>
        </g>
        <g transform="matrix(54.1667,0,0,54.1667,496.626,471.252)">
            <path d="M0.605,0.024L-0.029,0.024L0.105,-0.61L0.74,-0.61L0.709,-0.464L0.221,-0.464L0.2,-0.366L0.688,-0.366L0.657,-0.22L0.169,-0.22L0.148,-0.122L0.637,-0.122L0.605,0.024Z" style="fill:white;fill-opacity:0.77;fill-rule:nonzero;"/>
        </g>
        <g transform="matrix(54.1667,0,0,54.1667,554.813,471.252)">
            <path d="M0.605,0.024L-0.029,0.024L0.105,-0.61L0.74,-0.61L0.709,-0.464L0.221,-0.464L0.2,-0.366L0.688,-0.366L0.657,-0.22L0.169,-0.22L0.148,-0.122L0.637,-0.122L0.605,0.024Z" style="fill:white;fill-opacity:0.77;fill-rule:nonzero;"/>
        </g>
        <g transform="matrix(54.1667,0,0,54.1667,591.841,471.252)">
            <path d="M0.205,-0.393L0.117,0.024L-0.029,0.024L0.105,-0.61L0.264,-0.61L0.505,-0.193L0.594,-0.61L0.74,-0.61L0.605,0.024L0.447,0.024L0.205,-0.393Z" style="fill:white;fill-opacity:0.77;fill-rule:nonzero;"/>
        </g>
        <g transform="matrix(54.1667,0,0,54.1667,628.869,471.252)">
            <path d="M0.74,-0.61L0.709,-0.464L0.221,-0.464L0.148,-0.122L0.49,-0.122L0.511,-0.22L0.218,-0.22L0.249,-0.366L0.688,-0.366L0.605,0.024L-0.029,0.024L0.105,-0.61L0.74,-0.61Z" style="fill:white;fill-opacity:0.77;fill-rule:nonzero;"/>
        </g>
        <g transform="matrix(54.1667,0,0,54.1667,665.897,471.252)">
            <path d="M0.117,0.024L-0.029,0.024L0.105,-0.61L0.252,-0.61L0.117,0.024Z" style="fill:white;fill-opacity:0.77;fill-rule:nonzero;"/>
        </g>
        <g transform="matrix(54.1667,0,0,54.1667,676.476,471.252)">
            <path d="M0.205,-0.393L0.117,0.024L-0.029,0.024L0.105,-0.61L0.264,-0.61L0.505,-0.193L0.594,-0.61L0.74,-0.61L0.605,0.024L0.447,0.024L0.205,-0.393Z" style="fill:white;fill-opacity:0.77;fill-rule:nonzero;"/>
        </g>
        <g transform="matrix(54.1667,0,0,54.1667,713.504,471.252)">
            <path d="M0.605,0.024L-0.029,0.024L0.105,-0.61L0.74,-0.61L0.709,-0.464L0.221,-0.464L0.2,-0.366L0.688,-0.366L0.657,-0.22L0.169,-0.22L0.148,-0.122L0.637,-0.122L0.605,0.024Z" style="fill:white;fill-opacity:0.77;fill-rule:nonzero;"/>
        </g>
        <g transform="matrix(54.1667,0,0,54.1667,750.532,471.252)">
            <path d="M0.605,0.024L-0.029,0.024L0.105,-0.61L0.74,-0.61L0.709,-0.464L0.221,-0.464L0.2,-0.366L0.688,-0.366L0.657,-0.22L0.169,-0.22L0.148,-0.122L0.637,-0.122L0.605,0.024Z" style="fill:white;fill-opacity:0.77;fill-rule:nonzero;"/>
        </g>
        <g transform="matrix(54.1667,0,0,54.1667,787.56,471.252)">
            <path d="M0.606,0.024L0.423,0.024L0.271,-0.22L0.218,-0.22L0.249,-0.366L0.542,-0.366L0.563,-0.464L0.221,-0.464L0.117,0.024L-0.029,0.024L0.105,-0.61L0.74,-0.61L0.657,-0.22L0.466,-0.22L0.606,0.024Z" style="fill:white;fill-opacity:0.77;fill-rule:nonzero;"/>
        </g>
    </g>
    <defs>
        <radialGradient id="_Radial1" cx="0" cy="0" r="1" gradientUnits="userSpaceOnUse" gradientTransform="matrix(490.94,0,0,520.728,214.361,368.833)"><stop offset="0" style="stop-color:rgb(8,82,160);stop-opacity:1"/><stop offset="1" style="stop-color:rgb(10,94,188);stop-opacity:1"/></radialGradient>
    </defs>
</svg>
